<?xml version="1.0" standalone="no"?><!DOCTYPE svg PUBLIC "-//W3C//DTD SVG 1.1//EN" "http://www.w3.org/Graphics/SVG/1.1/DTD/svg11.dtd"><svg t="1587452649657" class="icon" viewBox="0 0 1024 1024" version="1.1" xmlns="http://www.w3.org/2000/svg" p-id="2966" xmlns:xlink="http://www.w3.org/1999/xlink" width="16" height="16"><defs><style type="text/css"></style></defs><path d="M727.668364 69.934545c-69.282909 2.420364-138.984727 42.123636-210.618182 116.503273l-4.421818 4.631273-2.839273-3.258182C440.576 110.266182 368.407273 69.818182 292.538182 69.818182 129.349818 69.818182 0.232727 181.294545 0.232727 379.950545v8.61091c0.302545 99.933091 20.48 170.449455 95.883637 271.36 54.644364 73.122909 162.210909 167.773091 323.863272 286.021818l23.575273 17.152c59.461818 38.958545 80.64 38.958545 134.981818 1.024l24.157091-17.082182c162.536727-115.595636 270.754909-210.850909 325.725091-287.930182C1006.731636 549.329455 1024 486.283636 1024 380.672 1024 175.313455 897.396364 69.818182 734.370909 69.818182l-6.702545 0.116363z" p-id="2967" fill=""></path></svg>